<?xml version="1.0" encoding="utf-8"?>
<!-- Generator: Adobe Illustrator 26.5.0, SVG Export Plug-In . SVG Version: 6.00 Build 0)  -->
<svg version="1.2" baseProfile="tiny" id="Layer_1" xmlns="http://www.w3.org/2000/svg" xmlns:xlink="http://www.w3.org/1999/xlink"
	 x="0px" y="0px" viewBox="0 0 72 72" overflow="visible" xml:space="preserve">
<g>
	<g>
		<path fill="#E68442" d="M52.4,19.1c-0.3,0-0.5,0.1-0.5,0.4c-0.1,0.6-0.2,1.2-0.3,1.9c0,0.3,0.1,0.5,0.4,0.5c0,0,0,0,0.1,0
			c0.2,0,0.4-0.2,0.5-0.4c0.1-0.7,0.2-1.3,0.3-1.9C52.9,19.3,52.7,19.1,52.4,19.1z"/>
		<path fill="#E68442" d="M48.3,7.8c-1.5,0-2.8,0.4-3.2,0.5l-0.1,0c-0.2,0.1-0.4,0.4-0.3,0.6c0.1,0.2,0.4,0.4,0.6,0.3l0.1,0
			c0.3-0.1,1.5-0.4,2.9-0.4c2.6,0,3.6,1,3.9,3.9c0.1,0.8,0,1.9-0.1,3.1c0,0.3,0.2,0.5,0.4,0.5c0,0,0,0,0,0c0.2,0,0.4-0.2,0.5-0.4
			c0.1-1.3,0.1-2.4,0.1-3.3C52.9,9.2,51.4,7.8,48.3,7.8z"/>
		<path fill="#E68442" d="M42.5,9.2l-3.2,1.1c-0.2,0.1-0.4,0.3-0.3,0.6c0.1,0.2,0.2,0.3,0.4,0.3c0,0,0.1,0,0.1,0l3.2-1.1
			C43,10,43.1,9.7,43,9.5C43,9.3,42.7,9.1,42.5,9.2z"/>
	</g>
	<path fill="#4C80B8" d="M56.3,12.3c-0.2-3-1.4-5.1-3.3-6.4c-3.7-2.4-8.8-0.5-8.9-0.5l-0.1,0c-0.3,0.1-0.5,0.2-0.8,0.3l-5,1.7
		c-1.4,0.5-3,0.5-4.4,0l-4.4-1.4C29,5.7,28.3,5.5,28,5.4c0,0-5-1.8-8.6,0.5c-2,1.2-3.2,3.4-3.5,6.4c-0.6,5,1.6,12.9,3.8,20.5
		c0.1,0.5,0.4,0.9,0.7,1.2l0.1,0.2l0,0c0.6,0.4,1,0.6,1.7,0.8c0.1,0,0.3,0.1,0.5,0.2l3.3,1.1l1.1,4.5c0.2,0.8,0.9,1.4,1.8,1.4h0.8
		l0.4,3.4l-1.3,0.3c-0.5,0.1-0.9,0.4-1.2,0.8c-0.3,0.4-0.4,0.9-0.3,1.4l0,0.2c0.2,0.9,1,1.6,1.9,1.6c0.1,0,0.3,0,0.4,0l1-0.2
		l0.1,1.2L29.6,51c-0.5,0.1-0.9,0.4-1.2,0.8c-0.3,0.4-0.4,0.9-0.3,1.4l0.1,0.3c0.2,0.9,1,1.5,1.8,1.5c0.1,0,0.2,0,0.4,0l0.7-0.1
		l0.1,1.2l-0.8,0.2c-0.5,0.1-0.9,0.4-1.1,0.8c-0.3,0.4-0.4,0.9-0.3,1.3l0.1,0.5c0.2,0.8,0.9,1.4,1.7,1.4c0.1,0,0.2,0,0.4,0l0.5-0.1
		l0.1,1.2l-0.6,0.1c-0.4,0.1-0.8,0.3-1.1,0.7c-0.3,0.4-0.3,0.8-0.3,1.3l0.1,0.6c0.2,0.8,0.9,1.4,1.7,1.4c0.1,0,0.2,0,0.3,0l0.4-0.1
		c0.4,1.2,1.5,2.1,2.8,2.1h1.6c1.5,0,2.8-1.1,2.9-2.6l0.1-1l0.8-0.1c0.4-0.1,0.8-0.3,1.1-0.7c0.3-0.4,0.3-0.8,0.3-1.3L41.9,61
		c-0.1-0.7-0.8-1.3-1.5-1.4l0.2-1.3l0.9-0.2c0.5-0.1,0.9-0.4,1.1-0.8c0.3-0.4,0.4-0.9,0.3-1.3l-0.1-0.5c-0.2-0.8-0.9-1.4-1.7-1.4
		l0.1-1.3l1.1-0.2c0.5-0.1,0.9-0.4,1.2-0.8c0.3-0.4,0.4-0.9,0.3-1.4l-0.1-0.3c-0.2-0.9-1.1-1.6-2-1.5l0.1-1.2l1.3-0.3
		c1-0.2,1.7-1.2,1.5-2.3l0-0.2c-0.2-1-1.2-1.7-2.3-1.5l0,0l0.1-0.9h0.6c0.9,0,1.6-0.6,1.8-1.4l1.1-4.5l3.2-1.1
		c1.2-0.4,1.6-0.6,2.3-1.2l0,0l0,0c0.2-0.3,0.4-0.7,0.5-1C54.5,25,56.7,16.9,56.3,12.3z M38.7,64.6c-0.1,0.9-0.9,1.6-1.8,1.6h-1.6
		c-0.8,0-1.5-0.5-1.7-1.2l5.3-1.1L38.7,64.6z M40.8,61.2l0.1,0.6c0,0.2,0,0.3-0.1,0.4c-0.1,0.1-0.2,0.2-0.4,0.3l-8.6,1.7
		c-0.3,0.1-0.6-0.1-0.7-0.5L31,63.1c0-0.2,0-0.3,0.1-0.4c0.1-0.1,0.2-0.2,0.4-0.3l8.6-1.7c0,0,0.1,0,0.1,0
		C40.5,60.7,40.8,60.9,40.8,61.2z M39.3,59.8L33,61l-0.1-1.2l6.6-1.3L39.3,59.8z M41.7,55.7l0.1,0.5c0,0.2,0,0.4-0.1,0.5
		c-0.1,0.2-0.3,0.3-0.4,0.3L31,59.1c-0.2,0-0.4,0-0.5-0.1c-0.2-0.1-0.3-0.3-0.3-0.4l-0.1-0.5c0-0.2,0-0.4,0.1-0.5
		c0.1-0.2,0.3-0.3,0.4-0.3L41,55.2c0,0,0.1,0,0.1,0C41.4,55.2,41.7,55.4,41.7,55.7z M40,54.3l-7.6,1.5l-0.1-1.2l7.8-1.6L40,54.3z
		 M41.9,49.7c0.3,0,0.7,0.2,0.7,0.6l0.1,0.3c0,0.2,0,0.4-0.1,0.6c-0.1,0.2-0.3,0.3-0.5,0.3l-12,2.4c-0.4,0.1-0.8-0.2-0.9-0.6
		L29.3,53c0-0.2,0-0.4,0.1-0.6c0.1-0.2,0.3-0.3,0.5-0.3l12-2.4C41.8,49.7,41.9,49.7,41.9,49.7z M40.6,48.8l-8.8,1.8l-0.1-1.2
		l9.1-1.8L40.6,48.8z M42.6,44.2c0.1,0,0.1,0,0.2,0c0.4,0,0.7,0.3,0.8,0.7l0,0.2c0.1,0.4-0.2,0.9-0.6,1l-13.6,2.7
		c-0.4,0.1-0.9-0.2-1-0.6l0-0.2c0-0.2,0-0.4,0.1-0.6c0.1-0.2,0.3-0.3,0.5-0.4L42.6,44.2z M41.2,43.4l-10.1,2l-0.4-3.1h10.6
		L41.2,43.4z M43.8,40.6c-0.1,0.3-0.4,0.6-0.7,0.6h-0.5H29.5h-0.7c-0.3,0-0.6-0.2-0.7-0.6l-1.1-4.2h17.8L43.8,40.6z M32.4,23.2
		c0-0.5,0.1-0.9,0.4-1.2c0.2-0.2,0.5-0.4,0.8-0.4h4.8c0.3,0,0.6,0.1,0.8,0.4c0.3,0.3,0.4,0.8,0.4,1.2c-0.2,2.7,0,7.8,3.5,12H28.9
		C32.4,30.9,32.6,25.9,32.4,23.2z M51.1,32.6c-0.1,0.2-0.2,0.4-0.3,0.6c-0.5,0.5-0.8,0.6-1.9,0.9l-3.1,1.1h-1.2
		c-3.8-4.1-4-9.2-3.8-12c0.1-0.8-0.2-1.5-0.7-2.1c-0.4-0.5-1-0.7-1.6-0.7h-4.8c-0.6,0-1.2,0.3-1.6,0.7c-0.5,0.5-0.8,1.3-0.7,2.1
		c0.2,2.7,0,7.8-3.8,12h-1.2L23,34.1c-0.2-0.1-0.3-0.1-0.5-0.2c-0.6-0.2-0.9-0.3-1.4-0.6l-0.1-0.1c-0.2-0.2-0.4-0.5-0.4-0.8
		c-2.1-7.2-4.3-15.3-3.8-20.1c0.3-2.7,1.3-4.6,3-5.6c2.7-1.6,6.4-0.8,7.7-0.4c0.4,0.1,1.1,0.4,1.5,0.5l4.4,1.4
		c1.7,0.5,3.5,0.5,5.1,0l5-1.7c0.3-0.1,0.6-0.2,0.8-0.3l0.1,0c1.3-0.5,5.2-1.3,7.9,0.4c1.6,1,2.6,2.9,2.8,5.5
		C55.5,16.8,53.4,24.8,51.1,32.6z"/>
</g>
</svg>
