<svg xmlns="http://www.w3.org/2000/svg" width="72.001" height="72.001" viewBox="0 0 72.001 72.001"><defs><style>.a{fill:#fff;}.b{fill:none;}.c{fill:#ff8300;}.d{fill:#3d7cc9;stroke:#fff;stroke-width:0.5px;}.e,.f{stroke:none;}.f{fill:#e7e8e8;}</style></defs><g transform="translate(-175 -174)"><g transform="translate(156 -507)"><g class="a" transform="translate(19 681)"><path class="e" d="M 66.46244049072266 71.7509765625 L 5.538538455963135 71.7509765625 C 2.622428178787231 71.7509765625 0.2499982863664627 69.37854766845703 0.2499982863664627 66.46244049072266 L 0.2499982863664627 5.538538455963135 C 0.2499982863664627 2.622428178787231 2.622428178787231 0.2499982863664627 5.538538455963135 0.2499982863664627 L 66.46244049072266 0.2499982863664627 C 69.37854766845703 0.2499982863664627 71.7509765625 2.622428178787231 71.7509765625 5.538538455963135 L 71.7509765625 66.46244049072266 C 71.7509765625 69.37854766845703 69.37854766845703 71.7509765625 66.46244049072266 71.7509765625 Z"/><path class="f" d="M 5.538536071777344 0.5 C 2.760276794433594 0.5 0.5 2.760276794433594 0.5 5.538536071777344 L 0.5 66.46244049072266 C 0.5 69.24069976806641 2.760276794433594 71.5009765625 5.538536071777344 71.5009765625 L 66.46244049072266 71.5009765625 C 69.24069976806641 71.5009765625 71.5009765625 69.24069976806641 71.5009765625 66.46244049072266 L 71.5009765625 5.538536071777344 C 71.5009765625 2.760276794433594 69.24069976806641 0.5 66.46244049072266 0.5 L 5.538536071777344 0.5 M 5.538536071777344 0 L 66.46244049072266 0 C 69.52128601074219 0 72.0009765625 2.479690551757812 72.0009765625 5.538536071777344 L 72.0009765625 66.46244049072266 C 72.0009765625 69.52128601074219 69.52128601074219 72.0009765625 66.46244049072266 72.0009765625 L 5.538536071777344 72.0009765625 C 2.479690551757812 72.0009765625 0 69.52128601074219 0 66.46244049072266 L 0 5.538536071777344 C 0 2.479690551757812 2.479690551757812 0 5.538536071777344 0 Z"/></g></g><g transform="translate(69.635 -34.668)"><path class="b" d="M0,0H35.676V35.676H0Z" transform="translate(123.965 227.934)"/><g transform="translate(121.728 223.668)"><g transform="translate(10.452 3.47)"><circle class="c" cx="0.98" cy="0.98" r="0.98" transform="translate(7.433 1.386) rotate(-45)"/><circle class="c" cx="0.98" cy="0.98" r="0.98" transform="translate(0 4.325)"/><circle class="c" cx="0.98" cy="0.98" r="0.98" transform="translate(3.514 11.185) rotate(-45)"/><circle class="c" cx="0.98" cy="0.98" r="0.98" transform="translate(11.458 3.876) rotate(-67.5)"/><circle class="c" cx="0.98" cy="0.98" r="0.98" transform="translate(3.619 3.876) rotate(-67.5)"/><circle class="c" cx="0.98" cy="0.98" r="0.98" transform="translate(3.721 6.536) rotate(-13.283)"/><circle class="c" cx="0.98" cy="0.98" r="0.98" transform="translate(0 8.245)"/><circle class="c" cx="0.98" cy="0.98" r="0.98" transform="translate(7.64 4.577) rotate(-13.282)"/></g><path class="d" d="M1606.973,915.7a17.06,17.06,0,0,0-17.054,17l-.014.257a3.7,3.7,0,0,1-.475,1.479l-3.537,5.867a2.79,2.79,0,0,0,2.39,4.229h1.5V949.4a4.6,4.6,0,0,0,4.6,4.6h6.064a5.534,5.534,0,0,0,1.148-.133v2.942h1.96v-3.782a5.438,5.438,0,0,0,.5-.35l3.723-3.158-1.267-1.494-3.724,3.158a3.614,3.614,0,0,1-2.337.857h-6.064a2.642,2.642,0,0,1-2.639-2.639v-6.834h-3.458a.83.83,0,0,1-.711-1.258l3.537-5.866a5.7,5.7,0,0,0,.748-2.315l.021-.375a15.112,15.112,0,0,1,15.1-15.1c.425,0,.844.029,1.261.064a11.671,11.671,0,0,1,2.925,4.5,2.943,2.943,0,0,1-.263,2.44,3.226,3.226,0,0,1-2.159,1.547l-.3.06a5.126,5.126,0,0,0-3.365,7.706l.65,1.059.878-.879a2.94,2.94,0,1,1,0,4.158l-1.385,1.385a4.87,4.87,0,0,0,3.458,1.435,4.993,4.993,0,0,0,.559-.032,4.924,4.924,0,0,0,3.628-2.3,4.847,4.847,0,0,0,0-5.131,4.924,4.924,0,0,0-3.628-2.3,4.866,4.866,0,0,0-2.9.563,3.177,3.177,0,0,1,2.486-3.74l.3-.06a5.187,5.187,0,0,0,3.471-2.486,4.942,4.942,0,0,0,.426-4.044,12.531,12.531,0,0,0-1.736-3.3,15.117,15.117,0,0,1,10.786,14.46,21.262,21.262,0,0,1-2.707,10.365,12.129,12.129,0,0,0-1.462,3.535,16.535,16.535,0,0,1-6.487-5.141l-1.55,1.2a18.386,18.386,0,0,0,7.662,5.9,19.18,19.18,0,0,0-.166,2.457v5.741h1.96v-5.741a13.483,13.483,0,0,1,1.7-6.9,23.043,23.043,0,0,0,3.014-11.416A17.074,17.074,0,0,0,1606.973,915.7Z" transform="translate(-1585.487 -915.696)"/></g></g></g></svg>