<svg xmlns="http://www.w3.org/2000/svg" viewBox="0 0 72 72" xmlns:v="https://vecta.io/nano"><path fill="none" stroke="#e8e6d9" stroke-width=".5" stroke-miterlimit="10" d="M69.7 71H2.3c-.7 0-1.3-.6-1.3-1.3V2.3C1 1.6 1.6 1 2.3 1h67.4c.7 0 1.3.6 1.3 1.3v67.4c0 .7-.6 1.3-1.3 1.3z"/><g fill="#427cbf"><path d="M29.4,41.6H27V26.5h-3.1c-5,0-9-4-9-9c0-5,4-9,9-9h24.5v2.4H23.9c-3.7,0-6.6,3-6.6,6.6      c0,3.7,3,6.6,6.6,6.6h5.5V41.6z"/><path d="M42.7 44.1l-.1-20h5.5c3.7 0 6.6-3 6.6-6.6 0-3.7-3-6.6-6.6-6.6V8.5a8.96 8.96 0 0 1 9 9 8.96 8.96 0 0 1-9 9H45v17.6h-2.3zm-13.3 0H27v-3.7h2.4v1.2h0z"/></g><path d="M26.9 45.8h.9v2.4h-.9zm16.3 2.3h-1.9v-2.4h1.9v2.4zm-3.1 0h-1.9v-2.4h1.9v2.4zm-3.1 0h-1.9v-2.4H37v2.4zm-3 0h-2v-2.4h2v2.4zm-3.1 0H29v-2.4h1.9v2.4zm13.4-2.3h.9v2.4h-.9z" fill="#f58220"/><path fill="#7ba5d7" d="M36.3 63.5c-5.1 0-9.3-4.2-9.3-9.3V50h2.4v4.2c0 3.8 3.1 6.9 6.9 6.9s6.9-3.1 6.9-6.9V50h2.4v4.2c-.1 5.2-4.2 9.3-9.3 9.3z"/><path fill="#f58220" d="M37.3 59.8h-2.4V58h2.4v1.8zm0-2.9h-2.4V55h2.4v1.9zm0-3h-2.4V52h2.4v1.9zm0-3h-2.4V49h2.4v1.9zm0-3h-2.4V46h2.4v1.9z"/></svg>