<svg xmlns="http://www.w3.org/2000/svg" width="72.001" height="72.001" viewBox="0 0 72.001 72.001"><defs><style>.a{fill:#fff;}.b{fill:#3d7cc9;}.c{fill:#ff8300;}.d,.e{stroke:none;}.e{fill:#e7e8e8;}</style></defs><g transform="translate(-175 -174)"><g transform="translate(156 -507)"><g class="a" transform="translate(19 681)"><path class="d" d="M 66.46244049072266 71.7509765625 L 5.538538455963135 71.7509765625 C 2.622428178787231 71.7509765625 0.2499982863664627 69.37854766845703 0.2499982863664627 66.46244049072266 L 0.2499982863664627 5.538538455963135 C 0.2499982863664627 2.622428178787231 2.622428178787231 0.2499982863664627 5.538538455963135 0.2499982863664627 L 66.46244049072266 0.2499982863664627 C 69.37854766845703 0.2499982863664627 71.7509765625 2.622428178787231 71.7509765625 5.538538455963135 L 71.7509765625 66.46244049072266 C 71.7509765625 69.37854766845703 69.37854766845703 71.7509765625 66.46244049072266 71.7509765625 Z"/><path class="e" d="M 5.538536071777344 0.5 C 2.760276794433594 0.5 0.5 2.760276794433594 0.5 5.538536071777344 L 0.5 66.46244049072266 C 0.5 69.24069976806641 2.760276794433594 71.5009765625 5.538536071777344 71.5009765625 L 66.46244049072266 71.5009765625 C 69.24069976806641 71.5009765625 71.5009765625 69.24069976806641 71.5009765625 66.46244049072266 L 71.5009765625 5.538536071777344 C 71.5009765625 2.760276794433594 69.24069976806641 0.5 66.46244049072266 0.5 L 5.538536071777344 0.5 M 5.538536071777344 0 L 66.46244049072266 0 C 69.52128601074219 0 72.0009765625 2.479690551757812 72.0009765625 5.538536071777344 L 72.0009765625 66.46244049072266 C 72.0009765625 69.52128601074219 69.52128601074219 72.0009765625 66.46244049072266 72.0009765625 L 5.538536071777344 72.0009765625 C 2.479690551757812 72.0009765625 0 69.52128601074219 0 66.46244049072266 L 0 5.538536071777344 C 0 2.479690551757812 2.479690551757812 0 5.538536071777344 0 Z"/></g></g><g transform="translate(-5.482 -36.327)"><g transform="translate(227.11 226.75)"><path class="b" d="M452.677,235.1a4.177,4.177,0,1,1,4.177-4.177A4.182,4.182,0,0,1,452.677,235.1Zm0-6.981a2.8,2.8,0,1,0,2.8,2.8A2.807,2.807,0,0,0,452.677,228.123Z" transform="translate(-448.5 -226.75)"/></g><g transform="translate(211.676 250.083)"><path class="c" d="M315.3,430.64l.051.086a6.112,6.112,0,0,0,.344.524c.1.147.217.3.326.444l0,.005a3.749,3.749,0,0,1,.934,1.755,1.665,1.665,0,0,1-1.66,1.66h0a1.634,1.634,0,0,1-.529-.088,1.658,1.658,0,0,1-1.127-1.573,3.755,3.755,0,0,1,.938-1.76,10.089,10.089,0,0,0,.672-.97Z" transform="translate(-313.635 -430.64)"/></g><g transform="translate(206.833 241.402)"><rect class="c" width="1.373" height="3.641" transform="translate(0 1.182) rotate(-59.393)"/></g><g transform="translate(206.673 245.083)"><rect class="c" width="3.09" height="1.373" transform="matrix(0.969, -0.249, 0.249, 0.969, 0, 0.768)"/></g><g transform="translate(208.877 246.864)"><rect class="c" width="3.48" height="1.373" transform="translate(0 2.995) rotate(-59.393)"/></g><g transform="translate(198.5 252.136)"><path class="b" d="M206.568,462.745H198.5V448.583h4.463v3.262h8.24v3a5.329,5.329,0,0,1-4.635,5.277Zm-6.695-1.373h5.321V458.8h.687a3.953,3.953,0,0,0,3.948-3.948v-1.631h-8.24v-3.262h-1.717Z" transform="translate(-198.5 -448.583)"/></g><path class="b" d="M333.537,302.411l-5.822-5.784,4.344-4.344a4.116,4.116,0,0,0-2.913-7.032H316.5v10.929a2.636,2.636,0,0,0,1.8,2.5,4.108,4.108,0,0,0,.676.884l7.538,7.489v7.04a4.12,4.12,0,1,0,8.24,0v-8.755A4.147,4.147,0,0,0,333.537,302.411Zm-.157,11.677a2.747,2.747,0,1,1-5.493,0v-7.326a.687.687,0,0,0-.2-.487l-7.668-7.618a2.637,2.637,0,0,0,1.748-2.479v-3.312l2.41-2.41h2.854v-1.373h-6.637v3.5h0v3.6a1.259,1.259,0,0,1-2.518,0v-9.556h11a.693.693,0,0,0,.118,0,2.778,2.778,0,0,1,.464.013,2.716,2.716,0,0,1,1.634.787,2.749,2.749,0,0,1,0,3.884l-4.831,4.831a.687.687,0,0,0,0,.973l6.311,6.27a2.764,2.764,0,0,1,.811,1.948Zm-11.616-23.164v-.468h.468Z" transform="translate(-104.496 -51.805)"/></g></g></svg>