<svg xmlns="http://www.w3.org/2000/svg" viewBox="0 0 72 72" xmlns:v="https://vecta.io/nano"><path fill="none" stroke="#e8e6d9" stroke-width=".5" stroke-miterlimit="10" d="M69.7 71H2.3c-.7 0-1.3-.6-1.3-1.3V2.3C1 1.6 1.6 1 2.3 1h67.4c.7 0 1.3.6 1.3 1.3v67.4c0 .7-.6 1.3-1.3 1.3z"/><g fill="#427bbf"><path d="M16 59.4c-.3 0-.5-.2-.6-.5-1.1-4-.2-8 2.5-11.6 1.6-2.2 3.5-3.6 4.2-4 .2-1.6 1.3-9.9 3.3-18 1.3-5.3 2.6-9.6 4-12.7C31 8.5 33 6.5 35.1 6.4s4.1 1.9 6 6c1.4 3.1 2.8 7.4 4.1 12.8 2 8.2 3.1 16.5 3.4 18.2.8.4 2.8 1.6 4.5 3.6 2.9 3.3 3.8 7.3 2.5 11.5-.1.3-.5.5-.8.4s-.5-.5-.4-.8c1.2-3.8.4-7.2-2.2-10.2-2-2.3-4.4-3.4-4.4-3.4-.2-.1-.3-.3-.4-.5A190.78 190.78 0 0 0 44 25.6c-3.7-15.4-7-17.7-8.7-17.7h-.1c-1.7.1-5.1 2.5-8.7 18-2.1 9-3.3 18.1-3.3 18.2a.55.55 0 0 1-.3.5s-2.2 1.4-4.1 3.9c-2.5 3.3-3.2 6.8-2.2 10.4.1.3-.1.7-.5.8 0-.3-.1-.3-.1-.3zm19.1 6.2c-5 0-6.3-3-7.1-5-.3-.7-.6-1.4-1-1.7-1.4-.9-3.2.3-3.2.3-.3.2-.7.1-.9-.2s-.1-.7.2-.9c.1-.1 2.5-1.7 4.6-.4.7.4 1.1 1.3 1.5 2.3.8 2 1.8 4.2 5.9 4.2.4 0 .6.3.6.6.1.6-.2.8-.6.8z"/><path d="M36.1 65.6c-.4 0-.6-.3-.6-.6 0-.4.3-.6.6-.6 4.2 0 5.1-2.2 5.9-4.2.4-1 .8-1.8 1.5-2.3 2.1-1.3 4.5.3 4.6.4.3.2.4.6.2.9s-.6.4-.9.2c0 0-1.8-1.2-3.2-.3-.4.2-.7.9-1 1.7-.7 1.8-2 4.8-7.1 4.8z"/></g><path d="M35.4 52.3h-.3c-.4 0-.6-.4-.6-.7 0-.4.4-.6.7-.6h.1 0c.3 0 .7-.2 1.1-.5.3-.3.7-.2.9 0 .3.3.2.7 0 .9-.5.6-1.2.9-1.9.9zm-1.8-1c-.2 0-.4-.1-.5-.2-.4-.5-.8-1.1-1.1-1.8-.2-.3 0-.7.3-.9s.7 0 .9.3c.3.6.6 1.1.9 1.5.2.3.2.7-.1.9-.1.1-.2.2-.4.2zm4.5-1.3c-.1 0-.2 0-.3-.1-.3-.2-.4-.6-.3-.9.3-.5.5-1.1.7-1.7.1-.3.5-.5.8-.4s.5.5.4.8c-.2.7-.5 1.3-.8 1.9-.1.3-.3.4-.5.4zm-6.2-2.2c-.3 0-.5-.2-.6-.4-.2-.6-.4-1.2-.5-1.9-.1-.3.1-.7.5-.8.3-.1.7.1.8.5.2.6.3 1.3.5 1.8.1.3-.1.7-.4.8h-.3zm7.5-1.4h-.2c-.3-.1-.6-.4-.5-.8l.4-1.9c.1-.4.4-.6.8-.5s.6.4.5.8c-.1.7-.3 1.3-.4 1.9-.1.3-.3.5-.6.5zM31 44c-.3 0-.6-.2-.6-.5l-.3-2c0-.4.2-.7.6-.7s.7.2.7.6l.3 1.9c.1.4-.2.7-.5.7H31zm9.1-1.5s-.1 0 0 0c-.4-.1-.7-.4-.6-.7.1-.6.1-1.3.2-1.9 0-.4.3-.6.7-.6s.6.3.6.7l-.2 2c-.1.3-.4.5-.7.5zm-9.6-2.3a.65.65 0 0 1-.6-.6c0-.6-.1-1.3-.1-2 0-.4.3-.7.6-.7.4 0 .7.3.7.6 0 .6.1 1.3.1 1.9 0 .4-.3.8-.7.8h0zm9.9-1.5c-.4 0-.7-.3-.6-.7v-1.9a.55.55 0 0 1 .3-.5.55.55 0 0 1-.3-.5c0-.6 0-1.3-.1-1.9 0-.4.2-.7.6-.7s.7.2.7.6c0 .6.1 1.3.1 2 0 .2-.1.4-.3.6a.55.55 0 0 1 .3.5v2c-.1.2-.3.5-.7.5zm-10-2.4c-.4 0-.7-.3-.6-.7 0-.7 0-1.3.1-2 0-.4.3-.6.7-.6s.6.3.6.7c0 .6 0 1.3-.1 1.9a.68.68 0 0 1-.7.7zm.2-3.9c-.4 0-.7-.4-.6-.7l.2-2c0-.4.4-.6.7-.6.4 0 .6.4.6.7-.1.6-.2 1.3-.2 1.9-.1.5-.4.7-.7.7zm9.6-.6c-.3 0-.6-.2-.6-.6l-.3-1.9c-.1-.4.2-.7.5-.7.4-.1.7.2.7.5l.3 2c.1.3-.2.6-.6.7zm-9.1-3.2H31c-.4-.1-.6-.4-.5-.8.1-.7.3-1.3.5-1.9.1-.3.4-.5.8-.5.3.1.5.4.5.8-.2.6-.3 1.2-.4 1.8-.2.4-.4.6-.8.6zm8.5-.7c-.3 0-.6-.2-.6-.5-.1-.6-.3-1.3-.5-1.8-.1-.3.1-.7.4-.8s.7.1.8.4c.2.6.4 1.2.5 1.9.1.3-.1.7-.5.8h-.1zm-7.4-3.1H32c-.3-.1-.5-.5-.4-.8l.9-1.9c.2-.3.6-.4.9-.2s.4.6.2.9c-.3.5-.5 1-.8 1.7-.1.2-.4.3-.6.3zm6.2-.6c-.3 0-.5-.1-.6-.4l-.9-1.6c-.2-.3-.1-.7.2-.9s.7-.1.9.2c.4.5.7 1.1 1 1.8.1.3 0 .7-.3.9h-.3zm-4.2-2.6a.55.55 0 0 1-.5-.3c-.2-.3-.2-.7.1-.9.5-.4 1-.6 1.6-.6.3 0 .6.1.9.2s.5.5.4.8-.5.5-.8.4c-.1-.1-.3-.1-.4-.1-.3 0-.5.1-.8.3-.2.2-.3.2-.5.2zM11.3 60.3c-.3 0-.6-.2-.6-.5 0-.2-.1-.4-.1-.6-.1-.4.2-.7.5-.7.4-.1.7.2.7.5 0 .2.1.4.1.6.1.4-.2.7-.5.7h-.1zm-.3-2.5a.65.65 0 0 1-.6-.6c0-.5-.1-1.1-.1-1.6v-.4c0-.4.3-.6.6-.6.4 0 .6.3.6.7v.4c0 .5 0 1 .1 1.5.1.2-.2.5-.6.6zm.1-3.9s-.1 0 0 0c-.4-.1-.7-.4-.6-.7.1-.7.2-1.3.4-2 .1-.3.4-.6.8-.5.3.1.6.4.5.8-.1.6-.3 1.2-.3 1.8-.2.4-.5.6-.8.6zm1-3.8h-.2c-.3-.1-.5-.5-.4-.8l.9-1.8c.2-.3.6-.4.9-.2s.4.6.2.9c-.3.5-.6 1.1-.8 1.7-.1.1-.4.2-.6.2zm1.9-3.3c-.1 0-.3 0-.4-.1-.3-.2-.3-.6-.1-.9.4-.5.9-1 1.4-1.5.3-.2.7-.2.9 0 .2.3.2.7 0 .9-.5.4-.9.9-1.3 1.3a.55.55 0 0 1-.5.3zm2.9-2.6a.55.55 0 0 1-.5-.3c-.2-.3-.1-.7.2-.9 1-.7 1.8-1 1.8-1 .3-.1.7 0 .8.4.1.3 0 .7-.4.8 0 0-.7.3-1.6.9-.1.1-.2.1-.3.1zm43.8 16.1h-.1c-.4-.1-.6-.4-.5-.7 0-.2.1-.4.1-.6.1-.4.4-.6.7-.5.4.1.6.4.5.7 0 .2-.1.4-.1.6 0 .3-.3.5-.6.5zm.3-2.5c-.4 0-.7-.3-.6-.7 0-.5.1-1 .1-1.5v-.4c0-.4.3-.7.6-.7.4 0 .6.3.6.6v.4c0 .5 0 1-.1 1.6 0 .4-.3.7-.6.7zm-.1-3.9c-.3 0-.6-.2-.6-.6l-.3-1.8c-.1-.3.1-.7.5-.8.3-.1.7.1.8.5.2.6.3 1.3.4 2-.1.3-.4.6-.8.7h0zm-1-3.8c-.3 0-.5-.2-.6-.4-.2-.6-.5-1.1-.8-1.7-.2-.3-.1-.7.2-.9s.7-.1.9.2l.9 1.8c.1.3 0 .7-.4.8 0 .2-.1.2-.2.2zM58 46.8c-.2 0-.4-.1-.5-.2-.4-.5-.8-.9-1.3-1.3-.3-.2-.3-.7 0-.9.2-.3.7-.3.9 0l1.4 1.5c.2.3.2.7-.1.9H58zm-2.9-2.6c-.1 0-.2 0-.4-.1-.9-.6-1.6-.9-1.6-.9-.3-.1-.5-.5-.4-.8s.5-.5.8-.4c0 0 .8.3 1.8 1 .3.2.4.6.2.9 0 .2-.2.3-.4.3z" fill="#f58320"/></svg>