<?xml version="1.0" encoding="utf-8"?>
<!-- Generator: Adobe Illustrator 26.5.0, SVG Export Plug-In . SVG Version: 6.00 Build 0)  -->
<svg version="1.2" baseProfile="tiny" id="Layer_1" xmlns="http://www.w3.org/2000/svg" xmlns:xlink="http://www.w3.org/1999/xlink"
	 x="0px" y="0px" viewBox="0 0 72 72" overflow="visible" xml:space="preserve">
<g>
	<path fill="#4C80B8" d="M36,37.3c0,0-0.1,0-0.1,0c-0.3-0.1-0.5-0.4-0.4-0.6c0.5-2.1,2.3-3.5,4.4-3.5c2.3,0,3.6,0.8,4.6,2.2
		c0.5-1.3,1.5-2.4,2.8-2.8c1.6-0.6,3.2-0.2,4.4,0.8c0.2-0.7,0.5-1.3,0.8-1.8c0.7-0.9,1.6-1.6,2.7-1.7c0.9-0.1,1.7,0.1,2.3,0.7
		c0.1-0.4,0.3-0.9,0.5-1.3c0.5-0.9,1.2-1.5,1.9-1.8c0.7-0.2,1.4-0.2,2,0.2c0.1-0.5,0.3-1,0.5-1.4c0.5-0.8,1.4-1.5,2.5-1.4
		c0.8,0.1,1.6,0.7,2,1.6c0.3,0.8,0.4,1.6,0.3,2.3c-0.1,1.6-0.4,2.7-1,3.6c-0.7,0.9-1.8,1.5-2.9,1.4c-0.3,0-0.5-0.3-0.5-0.6
		c0-0.3,0.3-0.5,0.6-0.5c0.7,0,1.5-0.4,2-1c0.5-0.7,0.8-1.7,0.8-3c0-0.6,0-1.3-0.2-1.8c-0.2-0.5-0.7-0.9-1.1-1
		c-0.6-0.1-1.2,0.4-1.4,0.9c-0.4,0.6-0.5,1.4-0.6,2.1c0,0.2-0.2,0.4-0.4,0.4c-0.2,0-0.5-0.1-0.6-0.3c-0.5-0.9-1.2-0.7-1.5-0.6
		c-0.5,0.2-1,0.6-1.4,1.3c-0.3,0.6-0.5,1.2-0.6,2.1c0,0.2-0.2,0.4-0.4,0.4c-0.2,0-0.4-0.1-0.5-0.3c-0.5-0.9-1.3-1.1-1.9-1
		c-0.7,0.1-1.4,0.6-1.9,1.3c-0.4,0.6-0.7,1.4-0.9,2.4c0,0.2-0.2,0.4-0.4,0.4c-0.2,0-0.4,0-0.6-0.2c-1-1.5-2.7-1.7-3.9-1.2
		c-1.3,0.5-2.2,1.7-2.4,3.3c0,0.2-0.2,0.4-0.4,0.5c-0.2,0-0.5-0.1-0.6-0.3c-1-1.8-1.9-2.8-4.3-2.8c-1.6,0-3,1.1-3.4,2.7
		C36.5,37.1,36.2,37.3,36,37.3z"/>
	<path fill="#4C80B8" d="M40.9,47.2c-1.3,0-2.6-0.2-3.3-0.6c-1.5-0.6-2-2.1-2-6.2c0-0.3,0.2-0.5,0.5-0.5c0.3,0,0.5,0.2,0.5,0.5
		c0,4.4,0.6,5,1.3,5.3c1.3,0.5,4.1,0.8,5.9-0.1c0.5-0.3,1.1-2.5,0.9-5.2c0-0.3,0.2-0.5,0.5-0.5c0.3,0,0.5,0.2,0.5,0.5
		c0,0.2,0.2,5.3-1.5,6.2C43.3,47,42.1,47.2,40.9,47.2z"/>
	<path fill="#4C80B8" d="M48.2,45.4c-0.4,0-0.8,0-1.3-0.1c-0.9-0.2-1.7-0.7-2.2-1.3c-0.2-0.2-0.2-0.6,0.1-0.7
		c0.2-0.2,0.6-0.2,0.7,0.1c0.4,0.4,1,0.8,1.6,0.9c0.9,0.2,1.9,0.1,2.8,0c0.5-0.1,1.1-0.1,1.5-0.4c0.5-0.4,0.7-1.1,0.8-1.7l0-0.1
		c0,0,0-0.1,0-0.1c0,0,0,0,0,0c0.3-1.4,0.4-2.8,0.3-4.2c0-0.3,0.2-0.5,0.5-0.6c0.3,0,0.5,0.2,0.6,0.5c0.1,1.5,0,3-0.3,4.5
		c0,0,0,0.1,0,0.1l0,0.1C53.1,43,52.8,44,52,44.6c-0.6,0.4-1.4,0.5-2,0.6C49.5,45.3,48.8,45.4,48.2,45.4z"/>
	<path fill="#4C80B8" d="M54.6,42.7c-0.7,0-1.4-0.1-1.9-0.2c-0.3-0.1-0.5-0.3-0.4-0.6c0.1-0.3,0.3-0.5,0.6-0.4
		c0.5,0.1,1.2,0.2,1.8,0.2c0.6,0,1.5-0.1,2.1-0.7c0.9-0.7,1.2-1.9,1.3-2.8c0,0,0,0,0,0c0.1-0.6,0.1-1.1,0.1-1.7c0-0.6,0-1.2,0.1-1.9
		c0-0.3,0.3-0.5,0.6-0.5c0.3,0,0.5,0.3,0.5,0.6c-0.1,0.6-0.1,1.2-0.1,1.8c0,0.6,0,1.2-0.1,1.8c0,0,0,0.1,0,0.1
		c-0.1,1.1-0.5,2.5-1.6,3.5c-0.9,0.7-2,0.9-2.8,0.9C54.7,42.7,54.7,42.7,54.6,42.7z M58.1,38.2C58.1,38.2,58.1,38.2,58.1,38.2
		C58.1,38.2,58.1,38.2,58.1,38.2z"/>
	<path fill="#4C80B8" d="M58.9,38.8c-0.1,0-0.2,0-0.3,0c-0.3,0-0.5-0.3-0.5-0.5c0-0.3,0.3-0.5,0.5-0.5c1,0,1.7-0.1,2.3-0.5
		c0.8-0.5,1.3-1.4,1.6-2.5c0.1-0.5,0.2-1,0.2-1.5c0-0.6,0-1.1,0-1.7c0-0.3,0.2-0.5,0.5-0.6c0.3,0,0.5,0.2,0.6,0.5
		c0,0.6,0.1,1.2,0,1.8c0,0.7-0.1,1.2-0.2,1.8c-0.3,1.4-1.1,2.5-2.1,3.1C60.8,38.5,60,38.8,58.9,38.8z"/>
	<path fill="#4C80B8" d="M36,37.3c-0.2,0-0.5-0.2-0.5-0.4c-0.4-1.6-1.8-2.7-3.4-2.7c-2.4,0-3.4,0.9-4.3,2.8
		c-0.1,0.2-0.3,0.3-0.6,0.3c-0.2,0-0.4-0.2-0.4-0.5c-0.2-1.6-1.1-2.8-2.4-3.3c-1.2-0.4-2.9-0.2-3.9,1.2c-0.1,0.2-0.3,0.3-0.6,0.2
		c-0.2,0-0.4-0.2-0.4-0.4c-0.1-1-0.4-1.8-0.9-2.4c-0.5-0.7-1.2-1.2-1.9-1.3c-0.6-0.1-1.5,0.1-1.9,1c-0.1,0.2-0.3,0.3-0.5,0.3
		c-0.2,0-0.4-0.2-0.4-0.4c-0.1-0.7-0.3-1.4-0.6-2.1c-0.3-0.6-0.8-1.1-1.4-1.3c-0.3-0.1-1-0.3-1.5,0.6c-0.1,0.2-0.3,0.3-0.6,0.3
		c-0.2,0-0.4-0.2-0.4-0.4c-0.1-0.7-0.2-1.5-0.6-2.1c-0.3-0.5-0.8-1-1.4-0.9c-0.5,0-0.9,0.4-1.1,1c-0.3,0.6-0.3,1.2-0.2,1.8
		C6,30,6.2,31,6.8,31.7c0.5,0.7,1.3,1.1,2,1c0.3,0,0.5,0.2,0.6,0.5c0,0.3-0.2,0.5-0.5,0.6c-1.1,0.1-2.2-0.5-2.9-1.4
		c-0.7-0.9-1-2-1-3.6c0-0.7,0-1.5,0.3-2.3c0.4-0.9,1.1-1.5,2-1.6c0.9-0.1,1.9,0.4,2.5,1.4c0.3,0.4,0.4,0.9,0.5,1.4
		c0.6-0.4,1.3-0.5,2-0.2c0.8,0.3,1.5,0.9,1.9,1.8c0.2,0.4,0.4,0.8,0.5,1.3c0.6-0.5,1.4-0.8,2.3-0.7c1,0.1,2,0.7,2.7,1.7
		c0.4,0.5,0.6,1.1,0.8,1.8c1.2-1,2.8-1.4,4.4-0.8c1.3,0.5,2.3,1.5,2.8,2.8c1-1.4,2.2-2.2,4.6-2.2c2.1,0,3.9,1.4,4.4,3.5
		c0.1,0.3-0.1,0.6-0.4,0.6C36.1,37.2,36,37.3,36,37.3z"/>
	<path fill="#4C80B8" d="M31.1,47.2c-1.2,0-2.4-0.2-3.4-0.7c-1.7-0.9-1.5-6-1.5-6.2c0-0.3,0.3-0.5,0.5-0.5c0.3,0,0.5,0.3,0.5,0.5
		c-0.1,2.7,0.4,4.9,0.9,5.2c1.7,0.9,4.6,0.6,5.9,0.1c0.8-0.3,1.5-1,1.5-5.3c0-0.3,0.2-0.5,0.5-0.5c0.3,0,0.5,0.2,0.5,0.5
		c0,4.5-0.8,5.7-2.2,6.2C33.7,47,32.4,47.2,31.1,47.2z"/>
	<path fill="#4C80B8" d="M23.8,45.4c-0.6,0-1.3-0.1-1.9-0.2c-0.6-0.1-1.4-0.2-2-0.6c-0.8-0.6-1.1-1.6-1.3-2.4l0-0.1c0,0,0-0.1,0-0.1
		c-0.3-1.5-0.4-3-0.3-4.5c0-0.3,0.3-0.5,0.6-0.5c0.3,0,0.5,0.3,0.5,0.6c-0.1,1.4,0,2.9,0.3,4.2c0,0,0,0,0,0c0,0,0,0.1,0,0.1l0,0.1
		c0.1,0.6,0.3,1.4,0.8,1.7c0.4,0.3,0.9,0.3,1.5,0.4c0.9,0.1,1.9,0.2,2.8,0c0.7-0.1,1.3-0.5,1.6-0.9c0.2-0.2,0.5-0.3,0.7-0.1
		c0.2,0.2,0.3,0.5,0.1,0.7c-0.5,0.6-1.3,1.1-2.2,1.3C24.7,45.3,24.2,45.4,23.8,45.4z"/>
	<path fill="#4C80B8" d="M17.4,42.7c0,0-0.1,0-0.1,0c-0.8,0-1.9-0.2-2.8-0.9c-1.1-0.9-1.5-2.4-1.6-3.5c0,0,0,0,0-0.1
		c-0.1-0.6-0.1-1.2-0.1-1.8c0-0.6,0-1.2-0.1-1.8c0-0.3,0.2-0.5,0.5-0.6c0.3,0,0.5,0.2,0.6,0.5c0.1,0.6,0.1,1.3,0.1,1.9
		c0,0.6,0,1.1,0.1,1.7c0,0,0,0,0,0c0,0,0,0,0,0c0.1,0.9,0.4,2.1,1.3,2.8c0.7,0.5,1.5,0.7,2.1,0.7c0.6,0,1.3-0.1,1.8-0.2
		c0.3-0.1,0.6,0.1,0.6,0.4c0.1,0.3-0.1,0.6-0.4,0.6C18.7,42.6,18.1,42.7,17.4,42.7z M13.9,38.2C13.9,38.2,13.9,38.2,13.9,38.2
		C13.9,38.2,13.9,38.2,13.9,38.2z M13.9,38.2C13.9,38.2,13.9,38.2,13.9,38.2C13.9,38.2,13.9,38.2,13.9,38.2z"/>
	<path fill="#4C80B8" d="M13.1,38.8c-1,0-1.9-0.2-2.6-0.6c-1-0.6-1.7-1.7-2.1-3.1c-0.1-0.5-0.2-1.1-0.2-1.8c0-0.6,0-1.2,0-1.8
		c0-0.3,0.3-0.5,0.6-0.5c0.3,0,0.5,0.3,0.5,0.6c0,0.6-0.1,1.2,0,1.7c0,0.6,0.1,1.1,0.2,1.5c0.2,1.1,0.8,2,1.6,2.5
		c0.6,0.4,1.3,0.5,2.3,0.5c0.3,0,0.5,0.2,0.5,0.5c0,0.3-0.2,0.5-0.5,0.5C13.3,38.8,13.2,38.8,13.1,38.8z"/>
</g>
</svg>
