<?xml version="1.0" encoding="utf-8"?>
<!-- Generator: Adobe Illustrator 26.5.0, SVG Export Plug-In . SVG Version: 6.00 Build 0)  -->
<svg version="1.2" baseProfile="tiny" id="Layer_1" xmlns="http://www.w3.org/2000/svg" xmlns:xlink="http://www.w3.org/1999/xlink"
	 x="0px" y="0px" viewBox="0 0 72 72" overflow="visible" xml:space="preserve">
<g>
	<g>
		<g>
			<path fill="#FFFFFF" d="M59.3,20.9c-2.3,0-5.5,1.4-7.5,1.5c-1.9-0.1-5.1-1.5-7.5-1.5c-4.1,0-6.3,2.9-6.3,7c0,2.9,1.9,5.1,2.9,7.6
				c1.2,3,0.5,6.3,1.5,9.3c0.6,1.7,1.3,3.4,2.5,4.8c1.5,1.7,4.4,2.4,4.5-0.5c0.1-2.4-0.2-5,0.3-7.4c0.5-2,3.7-2.1,4.1,0
				c0.5,2.4,0.2,5,0.3,7.4c0.1,3,3,2.3,4.5,0.5c1.2-1.4,1.9-3.1,2.5-4.8c1-3,0.3-6.3,1.5-9.3c1-2.6,2.9-4.8,2.9-7.6
				C65.6,23.8,63.4,20.9,59.3,20.9z"/>
			<path fill="#FFFFFF" d="M58.3,49.4c1.2-1.5,2-3.3,2.4-4.6c0.5-1.4,0.6-2.9,0.7-4.4c0.2-3.8,0.6-4.7,2.1-7.5
				c0.9-1.6,1.7-3.2,1.7-5c0-4.1-2.2-6.5-5.8-6.5c-0.2,0-0.5,0-0.8,0.1c-1.7-0.1-3.1,0.9-4.2,1c-0.9,0.2-1.8,0.4-2.5,0.5
				c-1.3,0.1-5.2-1.5-7.5-1.5c-0.1,0-0.2,0-0.3,0c-2.4,1-3.7,3.4-3.7,6.5c0,2.9,1.9,5.1,2.9,7.6c1.2,3,0.5,6.3,1.5,9.3
				c0.6,1.7,1.3,3.4,2.5,4.8c0.3,0.3,0.6,0.6,1,0.9c1.4-0.8,1.1-6,1.4-8.8c0.2-1.9,1-2.1,3-1.9c2.6,0.3,4,9.7,4.1,10.5
				C57.4,50.2,57.9,49.8,58.3,49.4z"/>
			<path fill="#FFFFFF" d="M57.9,23.7c0.9-0.6,1.4-1.7,1.3-2.8c-1.6-0.2-5.9,1.2-7.4,1.5c-0.2,0-0.4,0.1-0.6,0.2c0-0.1,0,0.5,0,0.4
				C51.3,22.9,55.7,25.2,57.9,23.7z"/>
		</g>
		<path fill="#4C80B8" d="M55.9,51.9L55.9,51.9c-1.1,0-2.4-0.7-2.4-2.7c0-0.8,0-1.6,0-2.4c0-1.6,0.1-3.3-0.3-4.9
			c-0.2-0.7-0.8-1-1.4-1c-0.5,0-1.2,0.3-1.4,1c-0.3,1.5-0.3,3.2-0.3,4.9c0,0.8,0,1.6,0,2.4c-0.1,2-1.3,2.7-2.4,2.7
			c-1.1,0-2.5-0.7-3.4-1.7c-1.4-1.6-2.2-3.6-2.6-5c-0.5-1.6-0.6-3.2-0.7-4.7c-0.1-1.6-0.2-3.2-0.8-4.6c-0.3-0.8-0.7-1.6-1.2-2.4
			c-0.9-1.7-1.8-3.4-1.8-5.5c0-4.8,2.7-7.8,7.1-7.8c1.4,0,3,0.4,4.5,0.9c1.1,0.3,2.2,0.6,3,0.7c0.8-0.1,1.9-0.3,3-0.7
			c1.5-0.4,3.1-0.9,4.5-0.9c4.4,0,7.1,3,7.1,7.8c0,2.1-0.9,3.8-1.8,5.5c-0.4,0.8-0.8,1.6-1.2,2.4c-0.6,1.4-0.7,3-0.8,4.6
			c-0.1,1.6-0.2,3.2-0.7,4.7c-0.5,1.4-1.3,3.4-2.6,5C58.3,51.2,57,51.9,55.9,51.9z M51.8,39.5c1.4,0,2.5,0.9,2.8,2.1
			c0.4,1.7,0.3,3.5,0.3,5.2c0,0.8,0,1.5,0,2.3c0,1.3,0.7,1.3,1,1.3c0.7,0,1.6-0.5,2.3-1.2c1.2-1.4,1.9-3.3,2.4-4.6
			c0.5-1.4,0.6-2.8,0.7-4.3c0.1-1.7,0.2-3.4,0.9-5c0.3-0.9,0.8-1.7,1.2-2.5c0.9-1.6,1.7-3.1,1.7-4.8c0-4-2-6.3-5.6-6.3
			c-1.2,0-2.7,0.4-4.1,0.8c-1.2,0.3-2.4,0.7-3.3,0.7c0,0-0.1,0-0.1,0c-0.9-0.1-2.1-0.4-3.3-0.7c-1.4-0.4-2.9-0.8-4.1-0.8
			c-3.6,0-5.6,2.3-5.6,6.3c0,1.7,0.8,3.2,1.7,4.8c0.4,0.8,0.9,1.7,1.2,2.5c0.6,1.7,0.8,3.4,0.9,5c0.1,1.5,0.2,3,0.7,4.3
			c0.4,1.3,1.2,3.1,2.4,4.6c0.6,0.7,1.5,1.2,2.3,1.2c0.2,0,0.9,0,1-1.3c0-0.7,0-1.5,0-2.3c0-1.7-0.1-3.5,0.3-5.2
			C49.3,40.3,50.4,39.5,51.8,39.5z"/>
		<path fill="#4C80B8" d="M41.2,30.2c-0.3,0-0.6-0.2-0.7-0.5c-0.3-0.7-0.4-1.3-0.4-1.9c0-2.2,0.7-4.9,4.2-4.9c0.4,0,0.7,0.3,0.7,0.7
			c0,0.4-0.3,0.7-0.7,0.7c-0.9,0-2.7,0-2.7,3.4c0,0.4,0.1,0.8,0.3,1.4c0.1,0.4-0.1,0.8-0.4,0.9C41.4,30.2,41.3,30.2,41.2,30.2z"/>
		<g>
			<path fill="#4C80B8" d="M55.6,25.1c-1.6,0-3.1-0.8-4.4-1.5c-0.8-0.4-1.6-0.8-2.3-1.1c-0.4-0.1-0.6-0.5-0.5-0.9
				c0.1-0.4,0.5-0.6,0.9-0.5c0.9,0.3,1.8,0.7,2.6,1.2c1.9,1,3.5,1.9,5.4,0.9c0.4-0.2,0.8,0,1,0.3c0.2,0.4,0,0.8-0.3,1
				C57.2,24.9,56.4,25.1,55.6,25.1z"/>
		</g>
	</g>
	<g>
		<g>
			<path fill="#FFFFFF" d="M27.6,20.9c-2.3,0-5.5,1.4-7.5,1.5c-1.9-0.1-5.1-1.5-7.5-1.5c-4.1,0-6.3,2.9-6.3,7c0,2.9,1.9,5.1,2.9,7.6
				c1.2,3,0.5,6.3,1.5,9.3c0.6,1.7,1.3,3.4,2.5,4.8c1.5,1.7,4.4,2.4,4.5-0.5c0.1-2.4-0.2-5,0.3-7.4c0.5-2,3.7-2.1,4.1,0
				c0.5,2.4,0.2,5,0.3,7.4c0.1,3,3,2.3,4.5,0.5c1.2-1.4,1.9-3.1,2.5-4.8c1-3,0.3-6.3,1.5-9.3c1-2.6,2.9-4.8,2.9-7.6
				C34,23.8,31.8,20.9,27.6,20.9z"/>
			<path fill="#FFFFFF" d="M26.7,49.4c1.2-1.5,2-3.3,2.4-4.6c0.5-1.4,0.6-2.9,0.7-4.4c0.2-3.8,0.6-4.7,2.1-7.5
				c0.9-1.6,1.7-3.2,1.7-5c0-4.1-2.2-6.5-5.8-6.5c-0.2,0-0.5,0-0.8,0.1c-1.7-0.1-3.1,0.9-4.2,1c-0.9,0.2-1.8,0.4-2.5,0.5
				c-1.3,0.1-5.2-1.5-7.5-1.5c-0.1,0-0.2,0-0.3,0c-2.4,1-3.7,3.4-3.7,6.5c0,2.9,1.9,5.1,2.9,7.6c1.2,3,0.5,6.3,1.5,9.3
				c0.6,1.7,1.3,3.4,2.5,4.8c0.3,0.3,0.6,0.6,1,0.9c1.4-0.8,1.1-6,1.4-8.8c0.2-1.9,1-2.1,3-1.9c2.6,0.3,4,9.7,4.1,10.5
				C25.8,50.2,26.3,49.8,26.7,49.4z"/>
			<path fill="#FFFFFF" d="M26.2,23.7c0.9-0.6,1.4-1.7,1.3-2.8c-1.6-0.2-5.9,1.2-7.4,1.5c-0.2,0-0.4,0.1-0.6,0.2c0-0.1,0,0.5,0,0.4
				C19.7,22.9,24,25.2,26.2,23.7z"/>
		</g>
		<path fill="#4C80B8" d="M24.2,51.9C24.2,51.9,24.2,51.9,24.2,51.9c-1.1,0-2.4-0.7-2.4-2.7c0-0.8,0-1.6,0-2.4
			c0-1.6,0.1-3.3-0.3-4.9c-0.2-0.7-0.8-1-1.4-1c-0.5,0-1.2,0.3-1.4,1c-0.3,1.5-0.3,3.2-0.3,4.9c0,0.8,0,1.6,0,2.4
			c-0.1,2-1.3,2.7-2.4,2.7c-1.1,0-2.5-0.7-3.4-1.7c-1.4-1.6-2.2-3.6-2.6-5c-0.5-1.6-0.6-3.2-0.7-4.7c-0.1-1.6-0.2-3.2-0.8-4.6
			c-0.3-0.8-0.7-1.6-1.2-2.4c-0.9-1.7-1.8-3.4-1.8-5.5c0-4.8,2.7-7.8,7.1-7.8c1.4,0,3,0.4,4.5,0.9c1.1,0.3,2.2,0.6,3,0.7
			c0.8-0.1,1.9-0.3,3-0.7c1.5-0.4,3.1-0.9,4.5-0.9c4.4,0,7.1,3,7.1,7.8c0,2.1-0.9,3.8-1.8,5.5c-0.4,0.8-0.8,1.6-1.2,2.4
			c-0.6,1.4-0.7,3-0.8,4.6c-0.1,1.6-0.2,3.2-0.7,4.7c-0.5,1.4-1.3,3.4-2.6,5C26.7,51.2,25.4,51.9,24.2,51.9z M20.2,39.5
			c1.4,0,2.5,0.9,2.8,2.1c0.4,1.7,0.3,3.5,0.3,5.2c0,0.8,0,1.5,0,2.3c0,1.3,0.7,1.3,1,1.3c0.7,0,1.6-0.5,2.3-1.2
			c1.2-1.4,1.9-3.3,2.4-4.6c0.5-1.4,0.6-2.8,0.7-4.3c0.1-1.7,0.2-3.4,0.9-5c0.3-0.9,0.8-1.7,1.2-2.5c0.9-1.6,1.7-3.1,1.7-4.8
			c0-4-2-6.3-5.6-6.3c-1.2,0-2.7,0.4-4.1,0.8c-1.2,0.3-2.4,0.7-3.3,0.7c0,0-0.1,0-0.1,0c-0.9-0.1-2.1-0.4-3.3-0.7
			c-1.4-0.4-2.9-0.8-4.1-0.8c-3.6,0-5.6,2.3-5.6,6.3c0,1.7,0.8,3.2,1.7,4.8c0.4,0.8,0.9,1.7,1.2,2.5c0.6,1.7,0.8,3.4,0.9,5
			c0.1,1.5,0.2,3,0.7,4.3c0.4,1.3,1.2,3.1,2.4,4.6c0.6,0.7,1.5,1.2,2.3,1.2c0.2,0,0.9,0,1-1.3c0-0.7,0-1.5,0-2.3
			c0-1.7-0.1-3.5,0.3-5.2C17.7,40.3,18.8,39.5,20.2,39.5z"/>
		<path fill="#4C80B8" d="M9.6,30.2c-0.3,0-0.6-0.2-0.7-0.5c-0.3-0.7-0.4-1.3-0.4-1.9c0-2.2,0.7-4.9,4.2-4.9c0.4,0,0.7,0.3,0.7,0.7
			c0,0.4-0.3,0.7-0.7,0.7c-0.9,0-2.7,0-2.7,3.4c0,0.4,0.1,0.8,0.3,1.4c0.1,0.4-0.1,0.8-0.4,0.9C9.7,30.2,9.7,30.2,9.6,30.2z"/>
		<g>
			<path fill="#4C80B8" d="M24,25.1c-1.6,0-3.1-0.8-4.4-1.5c-0.8-0.4-1.6-0.8-2.3-1.1c-0.4-0.1-0.6-0.5-0.5-0.9
				c0.1-0.4,0.5-0.6,0.9-0.5c0.9,0.3,1.8,0.7,2.6,1.2c1.9,1,3.5,1.9,5.4,0.9c0.4-0.2,0.8,0,1,0.3c0.2,0.4,0,0.8-0.3,1
				C25.6,24.9,24.8,25.1,24,25.1z"/>
		</g>
	</g>
	<g>
		<path fill="#E68442" d="M68.6,33.8H3.4c-0.4,0-0.7-0.3-0.7-0.7c0-0.4,0.3-0.7,0.7-0.7h65.1c0.4,0,0.7,0.3,0.7,0.7
			C69.3,33.4,69,33.8,68.6,33.8z"/>
	</g>
	<rect x="15.8" y="29.7" fill="#FFFFFF" width="8.8" height="6.6"/>
	<path fill="#E68442" d="M24.6,37.1h-8.8c-0.4,0-0.7-0.3-0.7-0.7v-6.6c0-0.4,0.3-0.7,0.7-0.7h8.8c0.4,0,0.7,0.3,0.7,0.7v6.6
		C25.3,36.8,25,37.1,24.6,37.1z M16.6,35.6h7.3v-5.2h-7.3V35.6z"/>
	<rect x="47.7" y="29.7" fill="#FFFFFF" width="8.9" height="6.6"/>
	<path fill="#E68442" d="M56.6,37.1h-8.9c-0.4,0-0.7-0.3-0.7-0.7v-6.6c0-0.4,0.3-0.7,0.7-0.7h8.9c0.4,0,0.7,0.3,0.7,0.7v6.6
		C57.4,36.8,57,37.1,56.6,37.1z M48.4,35.6h7.5v-5.2h-7.5V35.6z"/>
</g>
</svg>
