<svg xmlns="http://www.w3.org/2000/svg" viewBox="0 0 72 72" xmlns:v="https://vecta.io/nano"><path fill="none" stroke="#e8e6d9" stroke-width=".5" stroke-miterlimit="10" d="M69.7 71H2.3c-.7 0-1.3-.6-1.3-1.3V2.3C1 1.6 1.6 1 2.3 1h67.4c.7 0 1.3.6 1.3 1.3v67.4c0 .7-.6 1.3-1.3 1.3z"/><path fill="#4881c3" d="M55.2 59.5h0c-6.6 5.6-14.2-1.2-19.4-6.8-2.3-2.5-4.7-4.5-7.2-6.6-3.4-2.8-6.8-5.7-10.5-10.1l-.4-.5a76.2 76.2 0 0 0-2.9-3.4c-.9-1.1-1.4-2.4-1.3-3.5.1-1.3.9-2.2 1.9-2.3-.9-1.5-.5-3.1.4-3.9.4-.3.8-.5 1.3-.6-.1-.4-.2-.7-.2-1.1.1-1.4 1.2-2.8 2.8-2.8-.2-1 .2-2.1.9-2.7.6-.5 1.5-.7 2.2-.5-.3-1.3-.1-2.7.6-3.4.8-.8 2-1.2 3-.9 2.1.5 5.7 2.2 6.7 7.6.3 1.3.9 2.5 1.8 3.4l.2.2c1.2 1.1 3.8 3.7 8.1 14.6 1.9 4.9 4.9 6.6 7.6 8.2 1 .6 2 1.1 2.8 1.8 3.2 2.5 4.7 4.9 4.8 7.2.1 1.9-.8 3.7-2.8 5.6 0 .2-.2.4-.4.5zm-40-31.8a1.53 1.53 0 0 0-.4 1c-.1.8.3 1.8 1 2.6.9 1.1 2.1 2.4 2.9 3.4l.4.5c3.6 4.3 7 7.1 10.3 9.9 2.6 2.1 5 4.1 7.3 6.7 7.7 8.3 13.3 10.4 17.7 6.7.2-.1.3-.3.5-.4 1.7-1.6 2.5-3.1 2.4-4.6-.1-1.9-1.5-3.9-4.4-6.3-.7-.6-1.6-1.1-2.6-1.7-2.7-1.6-6.2-3.5-8.2-8.8-4.1-10.6-6.7-13.1-7.7-14.1-.1-.1-.2-.2-.3-.2-1.1-1.1-1.8-2.5-2.1-4-.9-4.8-4-6.2-5.8-6.7-.6-.2-1.3 0-1.8.5-.6.6-.5 2.6.4 3.8 1 1.3 2.9 3.3 2.9 3.3.2.3.2.7 0 .9-.3.2-.7.2-.9 0L23 16.3c-.4-.4-1.1-.5-1.6-.1s-.7 1.3-.4 1.7l3.8 4.7c.2.3.2.7-.1.9s-.7.2-.9-.1l-3-3.7c-1-.9-1.7-.5-2-.2-.4.3-.6.8-.6 1.2 0 .2 0 .6.3.9l3.6 4.2c.2.3.2.7-.1.9s-.7.2-.9-.1l-2.6-2.9c-.4-.4-.7-.7-1.1-.7s-.6.1-.8.3c-.6.6-.8 1.7.1 2.7l3.1 3.6c.2.3.2.7-.1.9s-.7.2-.9 0L16.5 28c-.4-.3-.9-.6-1.3-.3z"/><path d="M26.8 37.7c-.5.5-1.1.6-1.7.5-.7-.2-1.3-1-1.7-2.2-.4-1.1-1.4-5 .6-6.7.2-.2.5-.3.7-.5.3-.1 1.1-.4 1.7 0 .6.5.6 1.4.6 2.3v1.5l.3 1.3c.3 1.3.7 2.8-.5 3.8h0zm-2-7.5c-1.1.9-.8 3.5-.2 5.3.4 1.2.8 1.4.9 1.4.2.1.4-.1.5-.2h0c.5-.5.3-1.3 0-2.5l-.3-1.4c-.1-.6-.1-1.2 0-1.7v-1.2c-.1 0-.2 0-.5.1-.2 0-.3.1-.4.2zm29.4 22.9h0c-.1 0-.1.1-.2.1-1.9 1.4-4.7.3-6.3-1.5-1.5-1.7-1.6-3.6-.4-4.9l.2-.2c1.7-1.5 3.6.4 5 1.7 1.3 1.3 2.3 2.3 2.3 3.5 0 .4-.1.9-.6 1.3zm-5.8-5.5l-.1.1c-1.2 1.2 0 2.8.4 3.2 1.2 1.3 3.3 2.2 4.6 1.3l.1-.1h0c.2-.2.2-.3.2-.4 0-.7-1.1-1.8-1.9-2.5-1.7-1.5-2.6-2.2-3.3-1.6z" fill="#f1873b"/></svg>