<svg xmlns="http://www.w3.org/2000/svg" width="72.001" height="72.001" viewBox="0 0 72.001 72.001"><defs><style>.a{fill:#fff;}.b{fill:#ff8300;stroke:#ff8300;stroke-width:0.3px;}.c,.d{fill:#3d7cc9;stroke:#3d7cc9;}.c{stroke-width:0.2px;}.d{stroke-width:0.7px;}.e,.f{stroke:none;}.f{fill:#e7e8e8;}</style></defs><g transform="translate(-175 -174)"><g transform="translate(156 -507)"><g class="a" transform="translate(19 681)"><path class="e" d="M 66.46244049072266 71.7509765625 L 5.538538455963135 71.7509765625 C 2.622428178787231 71.7509765625 0.2499982863664627 69.37854766845703 0.2499982863664627 66.46244049072266 L 0.2499982863664627 5.538538455963135 C 0.2499982863664627 2.622428178787231 2.622428178787231 0.2499982863664627 5.538538455963135 0.2499982863664627 L 66.46244049072266 0.2499982863664627 C 69.37854766845703 0.2499982863664627 71.7509765625 2.622428178787231 71.7509765625 5.538538455963135 L 71.7509765625 66.46244049072266 C 71.7509765625 69.37854766845703 69.37854766845703 71.7509765625 66.46244049072266 71.7509765625 Z"/><path class="f" d="M 5.538536071777344 0.5 C 2.760276794433594 0.5 0.5 2.760276794433594 0.5 5.538536071777344 L 0.5 66.46244049072266 C 0.5 69.24069976806641 2.760276794433594 71.5009765625 5.538536071777344 71.5009765625 L 66.46244049072266 71.5009765625 C 69.24069976806641 71.5009765625 71.5009765625 69.24069976806641 71.5009765625 66.46244049072266 L 71.5009765625 5.538536071777344 C 71.5009765625 2.760276794433594 69.24069976806641 0.5 66.46244049072266 0.5 L 5.538536071777344 0.5 M 5.538536071777344 0 L 66.46244049072266 0 C 69.52128601074219 0 72.0009765625 2.479690551757812 72.0009765625 5.538536071777344 L 72.0009765625 66.46244049072266 C 72.0009765625 69.52128601074219 69.52128601074219 72.0009765625 66.46244049072266 72.0009765625 L 5.538536071777344 72.0009765625 C 2.479690551757812 72.0009765625 0 69.52128601074219 0 66.46244049072266 L 0 5.538536071777344 C 0 2.479690551757812 2.479690551757812 0 5.538536071777344 0 Z"/></g></g><g transform="translate(25.229 -198.989)"><g transform="translate(175.738 408.82)"><path class="b" d="M2212.931,2528.469a6.442,6.442,0,0,1-1.53.854.347.347,0,0,0,.259.645,7.144,7.144,0,0,0,1.693-.948.347.347,0,1,0-.422-.552Z" transform="translate(-2204.376 -2527.921)"/><path class="b" d="M1621.408,2596.193a4.767,4.767,0,0,1-1.256-.5.347.347,0,1,0-.354.6,5.434,5.434,0,0,0,1.439.57.33.33,0,0,0,.085.011.347.347,0,0,0,.085-.684Z" transform="translate(-1619.628 -2594.399)"/><path class="b" d="M1898.2,2649.962a9.4,9.4,0,0,1-1.779.136.356.356,0,0,0-.354.341.348.348,0,0,0,.341.354l.188,0a10.123,10.123,0,0,0,1.722-.148.347.347,0,1,0-.118-.684Z" transform="translate(-1892.887 -2648.082)"/><path class="b" d="M2588.374,2529.02a7.156,7.156,0,0,0,1.694.948.355.355,0,0,0,.129.025.347.347,0,0,0,.129-.67,6.428,6.428,0,0,1-1.53-.854.348.348,0,0,0-.423.552Z" transform="translate(-2576.739 -2527.921)"/><path class="b" d="M2883.351,2650.662a10.178,10.178,0,0,0,1.723.148l.188,0a.347.347,0,1,0-.013-.694,9.338,9.338,0,0,1-1.779-.137.348.348,0,0,0-.119.685Z" transform="translate(-2868.171 -2648.097)"/><path class="b" d="M3203.09,2596.9a.343.343,0,0,0,.085-.011,5.447,5.447,0,0,0,1.439-.57.348.348,0,0,0-.353-.6,4.738,4.738,0,0,1-1.256.5.347.347,0,0,0,.085.684Z" transform="translate(-3184.173 -2594.42)"/><path class="b" d="M1748,2487.067a.6.6,0,0,1-.613,0,.347.347,0,1,0-.284.634,1.444,1.444,0,0,0,.6.147,1.39,1.39,0,0,0,.592-.148.347.347,0,0,0-.292-.631Z" transform="translate(-1745.432 -2487.035)"/><path class="b" d="M1748,2487.067a.6.6,0,0,1-.613,0,.347.347,0,1,0-.284.634,1.444,1.444,0,0,0,.6.147,1.39,1.39,0,0,0,.592-.148.347.347,0,0,0-.292-.631Z" transform="translate(-1729.079 -2487.035)"/></g><g transform="translate(165.771 390.189)"><path class="c" d="M1700.876,1487.17a.347.347,0,1,0-.161.676l7.209,1.725a.342.342,0,0,0,.081.009.347.347,0,0,0,.081-.685Z" transform="translate(-1689.638 -1480.035)"/><path class="c" d="M2612.848,1489.593a.351.351,0,0,0,.081-.009l7.209-1.725a.347.347,0,1,0-.161-.675l-7.209,1.725a.347.347,0,0,0,.081.685Z" transform="translate(-2591.197 -1480.047)"/><path class="d" d="M761.849,893.936c-.011-.106-.019-.207-.029-.312-.36-3.854.113-6.568.822-10.617l.078-.444c.594-3.787,1.406-5.829,4.413-7.19.377-.17,1.355-.679,2.594-1.322,1.725-.9,3.873-2.011,5.195-2.626a4.019,4.019,0,0,0,2.288-2.879c.02-.1.037-.2.048-.309a.347.347,0,0,0-.306-.384.354.354,0,0,0-.05,0,.339.339,0,0,0-.05.005l-.015,0a.334.334,0,0,0-.054.017l-.01,0a.347.347,0,0,0-.049.027l-.01.007a.356.356,0,0,0-.04.033l-.013.012a.345.345,0,0,0-.028.034l-.015.021a.36.36,0,0,0-.018.033.327.327,0,0,0-.013.03.318.318,0,0,0-.01.031.347.347,0,0,0-.008.037s0,.009,0,.014a3.317,3.317,0,0,1-1.939,2.635c-1.336.622-3.49,1.74-5.221,2.639-1.181.613-2.2,1.143-2.56,1.306-3.278,1.484-4.193,3.763-4.812,7.71l-.077.438c-.738,4.215-1.226,7-.8,11.12,0,0,0,.006,0,.009a.352.352,0,0,0,.032.107l.008.015a.344.344,0,0,0,.067.086l.012.01a.35.35,0,0,0,.1.059l.01,0a.341.341,0,0,0,.118.022h0l.036,0A.347.347,0,0,0,761.849,893.936Z" transform="translate(-761 -867.853)"/><path class="d" d="M1314.046,2134.4l.023-.37.335-5.285c0-.009,0-.017,0-.026-.062-5.885-.8-7.754-1.726-10.12a34.873,34.873,0,0,1-2.015-6.844.347.347,0,1,0-.682.135,35.732,35.732,0,0,0,1.475,5.454.231.231,0,0,0,0,.027,15.441,15.441,0,0,1-1.168,5.566c-.033.075-.064.144-.091.2a.348.348,0,0,0,.317.49.355.355,0,0,0,.088-.013l.02-.006a.358.358,0,0,0,.069-.031l.012-.007a.352.352,0,0,0,.066-.056l.013-.016a.347.347,0,0,0,.044-.068l0-.008,0-.008h0a14.652,14.652,0,0,0,1.193-4.589l.009.023c.9,2.3,1.616,4.114,1.677,9.861l-.358,5.643s0,.008,0,.011a.263.263,0,0,0,0,.034.32.32,0,0,0,0,.037.306.306,0,0,0,.008.031c0,.011.006.023.01.034s.009.02.014.03.01.02.016.03a.315.315,0,0,0,.019.027.3.3,0,0,0,.021.025.33.33,0,0,0,.024.023l.026.021.029.018.029.016.032.012.032.01a.34.34,0,0,0,.035.006l.023,0h.022A.347.347,0,0,0,1314.046,2134.4Z" transform="translate(-1303.659 -2097.163)"/><path class="d" d="M2822.027,879.478a6.459,6.459,0,0,0-4.358-4.753,85.02,85.02,0,0,1-7.718-3.917,3.585,3.585,0,0,1-1.964-2.648.092.092,0,0,0,0-.014c0-.013,0-.025-.008-.038l-.01-.03c0-.011-.009-.022-.014-.032l-.016-.029-.018-.026c-.008-.01-.015-.019-.024-.028l-.02-.019a.352.352,0,0,0-.032-.026l-.019-.012a.371.371,0,0,0-.04-.022l-.018-.007a.334.334,0,0,0-.047-.015l-.019,0a.328.328,0,0,0-.047,0,.323.323,0,0,0-.05,0,.346.346,0,0,0-.306.384c.011.1.029.207.05.309a4.332,4.332,0,0,0,2.262,2.866,84.107,84.107,0,0,0,7.852,3.975,5.681,5.681,0,0,1,3.912,4.35c.618,3.657.44,2.56.458,2.8,0,.01,0,.021,0,.031l.17,1c.713,4.2,1.079,6.374.73,10.053-.01.1-.018.2-.029.312a.347.347,0,0,0,.31.381l.036,0h0a.34.34,0,0,0,.118-.022l.01,0a.35.35,0,0,0,.1-.059l.011-.01a.341.341,0,0,0,.067-.086l.008-.015a.335.335,0,0,0,.032-.107.057.057,0,0,0,0-.009c.41-3.968.037-6.168-.707-10.552l-.167-.988c-.022-.284-.148-1.357-.151-1.34A4.5,4.5,0,0,0,2822.027,879.478Z" transform="translate(-2783.52 -867.852)"/><path class="d" d="M1310.32,2133.4l-.022-.354-.321-5.054c0-.008,0-.016,0-.025.06-5.628.762-7.415,1.65-9.678a33.344,33.344,0,0,0,1.927-6.545.332.332,0,0,1,.652.129,34.192,34.192,0,0,1-1.41,5.215c0,.009,0,.017,0,.026a14.766,14.766,0,0,0,1.117,5.323c.031.071.061.138.087.2a.333.333,0,0,1-.166.439.328.328,0,0,1-.137.03.347.347,0,0,1-.084-.012l-.019-.006a.337.337,0,0,1-.066-.03l-.011-.006a.312.312,0,0,1-.063-.053l-.013-.016a.331.331,0,0,1-.042-.065s0,0,0-.007l0-.007h0a14.008,14.008,0,0,1-1.141-4.388l-.009.022c-.863,2.2-1.545,3.934-1.6,9.43l.342,5.4s0,.007,0,.011a.5.5,0,0,1,0,.067c0,.01,0,.02-.007.031s-.006.021-.01.032-.009.019-.013.029-.01.019-.015.028-.012.018-.019.026a.253.253,0,0,1-.02.024c-.007.008-.015.015-.023.022l-.024.02-.027.017-.028.015-.031.012-.03.01-.034.006-.023,0h-.021A.332.332,0,0,1,1310.32,2133.4Z" transform="translate(-1280.211 -2096.146)"/></g></g></g></svg>