<svg xmlns="http://www.w3.org/2000/svg" xmlns:xlink="http://www.w3.org/1999/xlink" viewBox="0 0 72 72" xmlns:v="https://vecta.io/nano"><path fill="none" stroke="#e8e6d9" stroke-width=".5" stroke-miterlimit="10" d="M69.7 71H2.3c-.7 0-1.3-.6-1.3-1.3V2.3C1 1.6 1.6 1 2.3 1h67.4c.7 0 1.3.6 1.3 1.3v67.4c0 .7-.6 1.3-1.3 1.3z"/><path fill="#427bbf" d="M67.2 23L50 21.4l-5.1-.5c-.3 0-.6.1-.4.3 3.4 5.2 4.3 12.2-1.4 16.2-3.1 2.2-7.3 2.5-10.7.8-4.1-2-6.2-6.1-6.5-10.5-.1-1.7.3-3.9.1-5.4-.1-1.5-1-1.5-1.4-1.4l-10.8 2L5 24.6c0-.6-.6-2.5 0-2.6 7.6-1.9 14-2.9 20.3-4.7.5-.1 3.1-.4 3.4 4.7.3 1.7-.2 3.8 0 5.6.2 3.4 1.7 6.7 4.9 8.2 2.5 1.3 5.6 1.1 8-.6 1.7-1.2 2.7-3.1 2.9-5.2.2-2.6-.8-5.2-2.2-7.3-.5-.7-1.2-1.4-1.7-2.1L39.3 19c-1.2-2.1 1.4-1.6 2.1-1.5l25.7 3.3c.4 0 0 1.8.1 2.2h0z"/><g fill-rule="evenodd" fill="#f48220"><use xlink:href="#B"/><use xlink:href="#C"/><use xlink:href="#B" x="-4.7" y="9.8"/><use xlink:href="#B" x="7.9" y="14.8"/><path d="M53.5 29.8c1.6 0 2.9-1.3 2.9-2.9S55.1 24 53.5 24s-2.9 1.3-2.9 2.9 1.3 2.9 2.9 2.9h0z"/><use xlink:href="#B" x="45.6" y="7"/><use xlink:href="#B" x="32.5" y="12"/><use xlink:href="#C" x="-15" y="-4.7"/><use xlink:href="#C" x="38.6" y="-6.6"/><use xlink:href="#C" x="32.7" y="1.7"/><use xlink:href="#C" x="15.4" y="10.8"/><use xlink:href="#C" x="-7.2" y="11.4"/><path d="M55.7 48.5c1.1 0 2-.9 2-2s-.9-2-2-2-2 .9-2 2c-.1 1.1.8 2 2 2h0z"/><use xlink:href="#B" x="13.7" y="23.9"/><path d="M46.3 53.1c1.6 0 2.9-1.3 2.9-2.9s-1.3-2.9-2.9-2.9-2.9 1.3-2.9 2.9c0 1.7 1.3 2.9 2.9 2.9h0zM59.5 42c.6 0 1-.5 1-1s-.4-1-1-1c-.5 0-1 .4-1 1a1.08 1.08 0 0 0 1 1h0zm-13.1 2.8a.94.94 0 0 0 1-1c0-.5-.4-1-1-1-.5 0-1 .4-1 1s.5 1 1 1h0z"/><use xlink:href="#C" x="15.4" y="19.6"/><path d="M22.9 50.8c.6 0 1-.5 1-1s-.4-1-1-1a1.08 1.08 0 0 0-1 1 1.08 1.08 0 0 0 1 1h0zm-2.8-11.9c.5 0 1-.4 1-1s-.5-1-1-1-1 .4-1 1a1.08 1.08 0 0 0 1 1h0zm2.8-12.3c.5 0 1-.4 1-1 0-.5-.4-1-1-1a.94.94 0 0 0-1 1c0 .5.4 1 1 1h0zm28.4 6.5a.94.94 0 0 0 1-1c0-.5-.4-1-1-1-.5 0-1 .4-1 1 0 .5.4 1 1 1h0zm-19.6 9.5c.5 0 1-.4 1-1 0-.5-.4-1-1-1a.94.94 0 0 0-1 1 .94.94 0 0 0 1 1h0z"/></g><path fill="#427cbf" stroke="#427cbf" stroke-width="4" stroke-miterlimit="10" d="M36.5 31.8c-2.2 0-4-1.8-4-4s1.8-4 4-4 4 1.8 4 4-1.8 4-4 4z"/><defs ><path id="B" d="M17.3 29.6c1.6 0 2.9-1.3 2.9-2.9s-1.3-2.9-2.9-2.9-2.9 1.3-2.9 2.9 1.3 2.9 2.9 2.9h0z"/><path id="C" d="M23.1 35.1c1.1 0 2-.9 2-2s-.9-2-2-2-2 .9-2 2 .9 2 2 2h0z"/></defs></svg>