<!-- icon666.com - MILLIONS vector ICONS FREE --><svg id="Capa_1" enable-background="new 0 0 512.009 512.009" viewBox="0 0 512.009 512.009" xmlns="http://www.w3.org/2000/svg"><g><path d="m457.603 327.25c-54.231-56.59-84.099-130.921-84.099-209.301v-110.44c0-4.143-3.357-7.5-7.5-7.5s-7.5 3.357-7.5 7.5v110.44c0 40.742 7.702 80.569 22.893 118.375 15.19 37.805 37.187 71.889 65.376 101.305 15.902 16.594 21.641 40.566 14.976 62.562-1.772 5.568-4.169 14.42-5.986 19.183-1.546 3.843.316 8.211 4.16 9.756.917.369 1.863.544 2.795.544 2.972 0 5.785-1.778 6.961-4.704.807-1.483 5.807-18.475 6.426-20.429 8.233-27.174 1.144-56.79-18.502-77.291z"></path><path d="m436.123 441.088c-8.632 4.541-18.653 5.973-28.217 4.035-25.745-5.217-51.77.085-72.905 14.001 1.59-5.861 3.314-12.056 5.374-18.301 12.876-11.526 31.378-13.359 44.83-12.82 3.844.153 7.69.465 11.41.767 13.998 1.132 27.222 2.205 36.196-5.759 5.457-4.842 8.299-12.108 8.688-22.214.333-8.648-2.872-16.439-9.023-21.938-8.978-8.024-23.136-10.638-42.095-7.765-49.15 7.447-62.596 57.216-70.63 86.951-2.541 9.408-4.987 18.262-7.312 21.553-7.812 11.058-21.766 17.454-35.353 17.411h-42.164c-12.85-.027-27.335-6.199-35.094-17.411-2.293-3.313-4.771-12.145-7.312-21.553-8.034-29.735-21.479-79.504-70.63-86.951-18.957-2.875-33.118-.26-42.095 7.765-6.151 5.499-9.356 13.29-9.023 21.938.389 10.105 3.23 17.372 8.688 22.214 8.974 7.964 22.198 6.892 36.196 5.759 3.72-.302 7.566-.613 11.41-.767 13.439-.53 31.952 1.293 44.83 12.82 2.084 6.317 3.823 12.583 5.428 18.503-21.191-14.071-47.348-19.448-73.219-14.203-21.609 4.378-42.721-8.23-49.114-29.328l-4.729-15.604c-6.665-21.996-.927-45.969 14.976-62.562 42.826-44.688 71.479-100.469 82.858-161.312.762-4.071-1.922-7.989-5.993-8.751-4.063-.757-7.99 1.921-8.751 5.993-10.843 57.968-38.141 111.113-78.944 153.69-19.646 20.501-26.735 50.117-18.501 77.291l4.729 15.604c8.65 28.544 37.213 45.602 66.448 39.68 30.598-6.201 61.661 5.139 81.068 29.593 11.395 14.357 28.442 22.592 46.772 22.592h42.164c18.33 0 35.378-8.234 46.772-22.592 19.407-24.453 50.473-35.792 81.068-29.593 12.939 2.624 26.498.684 38.18-5.461 3.665-1.929 5.074-6.464 3.146-10.13-1.926-3.665-6.46-5.074-10.127-3.145zm-43.495-55.164c4.156-.63 8.018-.94 11.53-.94 8.25 0 14.582 1.717 18.319 5.059 3.534 3.159 4.144 7.278 4.032 10.179-.221 5.722-1.45 9.614-3.654 11.57-4.187 3.714-14.311 2.895-25.031 2.027-3.869-.313-7.871-.638-12.021-.804-13.424-.54-25.505 1.174-35.854 5.02 8.7-15.925 21.633-28.922 42.679-32.111zm-261.396 26.994c-4-.025-10.75.384-16.789.9-10.722.865-20.845 1.687-25.031-2.027-2.204-1.956-3.718-5.754-3.939-11.475-.111-2.9.783-7.115 4.317-10.274 5.33-4.765 15.935-6.228 29.85-4.118 21.044 3.188 33.979 16.188 42.679 32.109-9.112-3.384-19.556-5.115-31.087-5.115z"></path><path d="m144.678 147.565c.183.014.363.02.543.02 3.898 0 7.19-3.016 7.473-6.965.538-7.514.811-15.142.811-22.671v-110.44c0-4.143-3.357-7.5-7.5-7.5s-7.5 3.357-7.5 7.5v110.44c0 7.174-.26 14.441-.771 21.601-.297 4.132 2.812 7.72 6.944 8.015z"></path><path d="m239.475 132.959c4.143 0 7.5-3.357 7.5-7.5v-22.254c0-4.143-3.357-7.5-7.5-7.5s-7.5 3.357-7.5 7.5v22.254c0 4.142 3.357 7.5 7.5 7.5z"></path><path d="m231.975 191.396c-26.091 40.4-35.27 73.164-30.553 107.965 1.044 7.706 2.866 15.526 5.413 23.242 1.041 3.152 3.973 5.15 7.121 5.15.779 0 1.572-.122 2.353-.38 3.934-1.299 6.069-5.54 4.771-9.474-2.26-6.843-3.872-13.758-4.794-20.555-.643-4.744-.977-9.458-1.014-14.173h18.417c.072 4.211.404 8.429 1.01 12.665 1.329 9.279 4.122 18.734 8.3 28.103l21.994 49.315c1.372 4.725-1.246 9.74-5.958 11.29-.936.308-1.901.464-2.872.464-3.976 0-7.483-2.542-8.727-6.324-.08-.242-.172-.479-.275-.712l-12.805-28.71c-1.687-3.784-6.124-5.48-9.904-3.795-3.783 1.688-5.482 6.122-3.795 9.904l12.663 28.394c3.385 9.733 12.512 16.243 22.843 16.243 2.566 0 5.111-.409 7.56-1.215 10.529-3.463 17.079-13.507 16.605-24.074.015-.19.029-.381.029-.575v-47.29c0-4.143-3.357-7.5-7.5-7.5s-7.5 3.357-7.5 7.5v10.388l-8.658-19.413c-3.612-8.101-6.019-16.216-7.151-24.12-3.116-21.758 1.798-42.577 15.81-65.701v9.832c0 4.143 3.357 7.5 7.5 7.5s7.5-3.357 7.5-7.5v-31.523c28.333-40.489 36.138-92.155 20.777-139.38-1.281-3.94-5.517-6.094-9.451-4.812-3.939 1.281-6.094 5.513-4.812 9.451 3.757 11.551 5.969 23.396 6.712 35.256h-18.728c-.883-14.708-4.404-29.199-10.642-42.867l-16.408-35.945c-1.02-2.233-1.108-4.73-.25-7.03.857-2.3 2.561-4.128 4.795-5.147s4.729-1.109 7.028-.25c2.3.858 4.127 2.561 5.146 4.795l8.997 19.714c1.72 3.768 6.166 5.428 9.938 3.709 3.768-1.72 5.429-6.169 3.709-9.938l-8.997-19.713c-2.683-5.879-7.494-10.361-13.549-12.621-6.054-2.258-12.626-2.025-18.502.658-8.222 4.096-14.146 12.325-14.146 22.595v45.032c0 4.143 3.357 7.5 7.5 7.5s7.5-3.357 7.5-7.5v-7.496l3.59 7.865c13.914 30.488 12.388 65.761-3.59 97.128v-8.481c0-4.143-3.357-7.5-7.5-7.5s-7.5 3.357-7.5 7.5zm2.602 76.776h-18.38c2.725-20.719 11.498-42.101 27.161-66.743l17.368 6.368c-14.895 21.031-23.483 40.773-26.149 60.375zm40.257-146.34h18.904c-1.099 25.919-9.233 51.339-23.914 73.323l-17.941-6.578c13.819-20.773 21.55-43.772 22.951-66.745z"></path><path d="m272.856 263.721c-4.143 0-7.5 3.357-7.5 7.5v22.254c0 4.143 3.357 7.5 7.5 7.5s7.5-3.357 7.5-7.5v-22.254c0-4.143-3.357-7.5-7.5-7.5z"></path></g></svg>